:SAMPLES-PER-SECOND 30
:FULLY-SPECIFIED
:DEGREES
250
root  80.8324 38.6179 -1.93727 94.6382 85.4918 99.0413
RightUpLeg  -4.5009 1.02952 -8.7946
RightLeg  38.3783 5.20608 4.14416
RightFoot  -12.1237 -0.0345276 6.35499
RightToes  -1.33073e-015 0 -3.6325e-017
Spine  -0.989442 1.63126 1.94336
Spine1  8.08598 3.8224 -9.93459
HEad  -23.7903 5.9719 -3.11562
LeftShoulder1  -0.347473 4.40246 -32.5323
LeftArm  6.0567 5.45614 -40.9842
LeftForeArm  20.7665 -17.9237 -5.89662
LeftHand  -0.00506155 7.50859 1.9077
RightShoulder  -1.0297 -6.17991 31.8965
RightArm  24.3914 6.58969 48.4191
RightForeArm  11.5513 16.3413 6.24656
RightHand  -0.0969862 4.94471 -1.39326
LeftUpLeg  -6.51816 3.11457 -6.07123
LeftLeg  13.1203 -8.17665 -2.57378
LeftFoot  1.62322 -0.67289 5.82796
LeftToes  -1.63346e-009 7.54925e-011 9.86887e-012
251
root  81.0135 38.6308 -1.8066 117.476 84.6652 121.592
RightUpLeg  -5.31173 3.89857 -7.99876
RightLeg  37.8776 7.43663 5.90267
RightFoot  -14.0376 0.102905 8.4242
RightToes  -1.33073e-015 0 -3.6325e-017
Spine  -0.12056 1.42808 -0.206549
Spine1  6.99824 3.1709 -8.18302
HEad  -23.9083 6.31234 -3.52468
LeftShoulder1  -0.380692 4.48812 -32.5364
LeftArm  9.14637 3.61671 -41.7989
LeftForeArm  16.0688 -25.1429 -4.30472
LeftHand  0.00136441 6.56755 3.09951
RightShoulder  -1.04569 -6.21674 31.9667
RightArm  22.5821 3.25217 48.2633
RightForeArm  13.3505 15.4552 6.39749
RightHand  -0.0486851 4.96758 -0.83745
LeftUpLeg  -6.72744 3.15993 -5.9621
LeftLeg  13.3876 -10.3782 -3.14265
LeftFoot  1.34239 -0.595514 5.2828
LeftToes  -1.63346e-009 7.54925e-011 9.86887e-012
252
root  81.226 38.6753 -1.63997 138.865 82.5514 142.986
RightUpLeg  -5.13422 7.30937 -7.40315
RightLeg  36.1241 9.8299 7.38435
RightFoot  -15.2295 0.207377 9.2122
RightToes  -1.33073e-015 0 -3.6325e-017
Spine  0.405496 0.96204 -2.67835
Spine1  6.53037 2.26168 -5.90144
HEad  -23.7918 6.05658 -3.45617
LeftShoulder1  -0.407467 4.55473 -32.6334
LeftArm  4.99385 2.94202 -41.6969
LeftForeArm  21.3616 -33.6153 -6.24439
LeftHand  -0.0243429 5.53282 2.85599
RightShoulder  -1.06989 -6.27638 32.0171
RightArm  21.3522 0.562238 48.2596
RightForeArm  14.4328 13.3839 7.1843
RightHand  -0.0207905 3.94752 -0.520297
LeftUpLeg  -6.29564 3.13496 -5.93632
LeftLeg  13.1737 -13.6295 -3.90139
LeftFoot  1.67635 -0.588177 5.06426
LeftToes  -1.63346e-009 7.54925e-011 9.86887e-012
253
root  81.353 38.6766 -1.60586 146.874 80.7744 151.003
RightUpLeg  -5.002 12.4165 -6.64472
RightLeg  34.0514 11.3724 7.93806
RightFoot  -15.9862 0.231875 8.35203
RightToes  -1.33073e-015 0 -3.6325e-017
Spine  1.29763 0.798358 -2.14663
Spine1  5.88243 2.24568 -6.83945
HEad  -23.2829 6.04569 -3.30393
LeftShoulder1  -0.395195 4.52498 -32.563
LeftArm  3.70577 2.45496 -41.6229
LeftForeArm  25.9621 -41.8753 -8.31434
LeftHand  -0.0414051 4.68846 3.31867
RightShoulder  -1.07348 -6.28321 32.0514
RightArm  19.8892 -1.72428 48.3761
RightForeArm  16.0749 10.8653 8.04419
RightHand  -0.0725215 4.19641 -1.14867
LeftUpLeg  -6.34181 2.70015 -5.95954
LeftLeg  13.6101 -15.4873 -4.28902
LeftFoot  1.48558 -0.509367 4.44382
LeftToes  -1.63346e-009 7.54925e-011 9.86887e-012
254
root  81.5279 38.575 -1.3075 154.209 77.4998 158.057
RightUpLeg  -4.53277 17.3496 -5.71411
RightLeg  31.7715 12.5499 8.03378
RightFoot  -17.0244 0.377413 9.9072
RightToes  -1.33073e-015 0 -3.6325e-017
Spine  0.989817 0.515837 -4.94957
Spine1  6.49724 1.52823 -4.8203
HEad  -22.3068 6.04606 -3.25951
LeftShoulder1  -0.421607 4.59017 -32.6643
LeftArm  3.77083 1.5538 -41.4366
LeftForeArm  29.0873 -48.7967 -10.6335
LeftHand  -0.0722957 3.72212 3.6585
RightShoulder  -1.09902 -6.34156 32.1616
RightArm  18.6804 -4.25323 48.3882
RightForeArm  19.5162 9.85737 8.08974
RightHand  -0.0134087 3.35085 -0.424266
LeftUpLeg  -7.15357 2.57783 -6.00558
LeftLeg  15.1054 -18.5941 -5.48968
LeftFoot  0.656191 -0.383914 3.61346
LeftToes  -1.63346e-009 7.54925e-011 9.86887e-012
255
root  81.7409 38.5537 -1.03316 157.943 73.9293 161.436
RightUpLeg  -3.67741 21.3323 -4.7546
RightLeg  29.3342 14.3037 8.34315
RightFoot  -17.1611 0.438307 10.6924
RightToes  -1.33073e-015 0 -3.6325e-017
Spine  0.428594 0.420424 -6.96344
Spine1  7.11991 1.17861 -3.26119
HEad  -21.4884 7.65287 -3.94243
LeftShoulder1  -0.467564 4.70524 -32.7723
LeftArm  4.29208 1.18238 -41.2971
LeftForeArm  31.531 -54.9583 -13.3802
LeftHand  -0.11745 2.91217 4.97822
RightShoulder  -1.13405 -6.41463 32.3976
RightArm  17.7792 -6.83086 48.0889
RightForeArm  21.8978 8.87472 8.13972
RightHand  -0.0112947 3.03866 -0.382365
LeftUpLeg  -7.3665 1.89949 -6.26859
LeftLeg  15.3028 -21.4019 -6.21055
LeftFoot  0.5032 -0.303015 2.89561
LeftToes  -1.63346e-009 7.54925e-011 9.86887e-012
256
root  81.8166 38.6345 -0.893069 163.411 70.2665 166.486
RightUpLeg  -3.25973 23.5194 -3.38554
RightLeg  27.2303 14.5694 7.80071
RightFoot  -15.553 0.088769 5.42637
RightToes  -1.33073e-015 0 -3.6325e-017
Spine  0.354917 0.132048 -6.34693
Spine1  7.1128 0.882588 -2.7429
HEad  -21.4434 11.2867 -5.39727
LeftShoulder1  -0.437818 4.63412 -32.5955
LeftArm  4.02148 1.77028 -41.7495
LeftForeArm  34.3202 -59.7091 -16.1696
LeftHand  -0.110178 2.85059 4.50328
RightShoulder  -1.15695 -6.46788 32.4743
RightArm  18.0383 -9.13802 47.3841
RightForeArm  22.2141 9.03333 8.12567
RightHand  -0.00777653 3.51825 -0.330065
LeftUpLeg  -7.53247 0.388001 -6.08671
LeftLeg  14.601 -23.8325 -6.25772
LeftFoot  1.35314 -0.316449 2.76967
LeftToes  -1.63346e-009 7.54925e-011 9.86887e-012
257
root  81.7059 38.6113 -0.894233 165.967 67.465 168.602
RightUpLeg  -2.98798 22.3758 -3.09777
RightLeg  25.9938 13.3586 6.79146
RightFoot  -14.7437 -0.0313752 2.15423
RightToes  -1.33073e-015 0 -3.6325e-017
Spine  0.933522 0.354376 -2.71037
Spine1  6.70096 1.75839 -5.6795
HEad  -21.0333 14.9105 -7.51028
LeftShoulder1  -0.472004 4.71202 -32.9135
LeftArm  5.11558 1.75556 -41.4262
LeftForeArm  35.5907 -62.5084 -18.2914
LeftHand  -0.133144 2.3137 4.62331
RightShoulder  -1.16973 -6.49363 32.5643
RightArm  17.5569 -11.4018 46.6516
RightForeArm  22.7254 9.76135 7.67611
RightHand  0.0694543 3.01952 0.728435
LeftUpLeg  -8.24969 -1.46494 -6.40257
LeftLeg  14.5155 -25.0005 -6.21402
LeftFoot  1.78694 -0.328322 2.75882
LeftToes  -1.63346e-009 7.54925e-011 9.86887e-012
258
root  81.5484 38.6444 -0.834058 169.078 64.2529 171.133
RightUpLeg  -2.1668 19.1301 -2.47802
RightLeg  23.4311 10.9642 5.00774
RightFoot  -14.0448 -0.151696 -2.26728
RightToes  -1.33073e-015 0 -3.6325e-017
Spine  1.53809 0.604844 0.997164
Spine1  6.32634 2.56484 -8.02388
HEad  -21.2652 19.0696 -9.8572
LeftShoulder1  -0.500817 4.77016 -33.4002
LeftArm  8.36662 0.479274 -40.3586
LeftForeArm  32.949 -62.2176 -18.3689
LeftHand  -0.173112 2.14781 5.944
RightShoulder  -1.22274 -6.61053 32.8075
RightArm  19.3769 -12.2614 45.435
RightForeArm  20.6251 9.63153 8.13012
RightHand  0.0440049 3.62224 0.310236
LeftUpLeg  -9.09881 -3.56333 -6.4119
LeftLeg  14.1002 -26.3314 -5.98473
LeftFoot  2.69633 -0.335976 2.59686
LeftToes  -1.63346e-009 7.54925e-011 9.86887e-012
259
root  81.3983 38.6579 -0.625579 170.783 60.4015 172.695
RightUpLeg  -0.579911 16.1866 -1.64327
RightLeg  20.2373 8.0562 2.77564
RightFoot  -14.2271 -0.171322 -2.99668
RightToes  -1.33073e-015 0 -3.6325e-017
Spine  2.52861 1.01729 3.39371
Spine1  6.13187 3.28197 -8.91769
HEad  -20.1918 22.1776 -12.003
LeftShoulder1  -0.509829 4.80255 -33.0795
LeftArm  7.77807 1.17856 -42.0223
LeftForeArm  33.7601 -61.031 -17.2532
LeftHand  -0.154836 2.03305 5.07519
RightShoulder  -1.2328 -6.63213 32.8573
RightArm  19.6798 -13.6139 44.4612
RightForeArm  19.3246 10.7672 7.72664
RightHand  0.047211 3.82495 0.329837
LeftUpLeg  -9.33471 -5.76643 -6.52392
LeftLeg  13.3797 -27.6988 -5.69947
LeftFoot  3.22936 -0.297924 2.17797
LeftToes  -1.63346e-009 7.54925e-011 9.86887e-012
260
root  81.2541 38.6666 -0.39512 173.668 55.8437 174.724
RightUpLeg  -0.892676 11.3323 -0.687207
RightLeg  19.0632 7.25921 0.93835
RightFoot  -14.1491 -0.211282 -4.71374
RightToes  -1.33073e-015 0 -3.6325e-017
Spine  2.19463 1.32464 5.60478
Spine1  6.78366 3.64234 -8.58583
HEad  -20.2898 25.1609 -14.5363
LeftShoulder1  -0.612666 5.03502 -33.8603
LeftArm  9.85848 0.174463 -41.6283
LeftForeArm  31.8122 -57.7069 -15.07
LeftHand  -0.12072 2.80861 4.9062
RightShoulder  -1.24939 -6.6745 32.8596
RightArm  20.6314 -13.604 43.2307
RightForeArm  18.0807 11.2195 7.73727
RightHand  0.0151694 3.65639 -0.0588695
LeftUpLeg  -10.6244 -8.79491 -6.03931
LeftLeg  12.8785 -29.2517 -5.69284
LeftFoot  3.58134 -0.233893 1.6185
LeftToes  -1.63346e-009 7.54925e-011 9.86887e-012
261
root  80.9394 38.6207 -0.199302 175.657 52.5258 175.934
RightUpLeg  -2.243 5.93328 -1.11437
RightLeg  18.9771 9.53969 1.58378
RightFoot  -14.02 -0.186657 -3.92943
RightToes  -1.33073e-015 0 -3.6325e-017
Spine  3.04068 1.91725 9.26694
Spine1  6.63796 4.67143 -10.3284
HEad  -20.2745 26.5618 -17.0287
LeftShoulder1  -0.624542 5.05996 -33.9677
LeftArm  12.7153 -0.992966 -41.764
LeftForeArm  27.6559 -51.1839 -11.817
LeftHand  -0.12343 2.97216 5.24652
RightShoulder  -1.19436 -6.56163 32.4987
RightArm  21.4699 -12.3932 42.1552
RightForeArm  18.6662 10.6011 8.17747
RightHand  0.00239166 4.17115 -0.247788
LeftUpLeg  -12.4351 -11.6102 -5.57945
LeftLeg  13.1027 -29.4676 -5.76051
LeftFoot  3.11465 -0.0370031 0.151812
LeftToes  -1.63346e-009 7.54925e-011 9.86887e-012
262
root  80.6157 38.621 0.0389598 177.336 49.3311 176.79
RightUpLeg  -3.57028 1.82111 -1.45384
RightLeg  18.7932 10.4004 2.21038
RightFoot  -13.6553 -0.167503 -3.72513
RightToes  -1.33073e-015 0 -3.6325e-017
Spine  3.77859 2.43405 11.6433
Spine1  6.66621 5.35857 -10.875
HEad  -21.337 28.9452 -19.7882
LeftShoulder1  -0.63695 5.08795 -34.0348
LeftArm  15.3092 -1.6537 -42.4476
LeftForeArm  22.1221 -42.8316 -8.88362
LeftHand  -0.100571 3.72419 6.35469
RightShoulder  -1.06846 -6.28362 31.8793
RightArm  23.1285 -9.54518 40.8691
RightForeArm  20.3764 8.92786 9.22259
RightHand  0.0056913 3.88081 -0.191099
LeftUpLeg  -13.8311 -12.9944 -5.24661
LeftLeg  12.5057 -30.7377 -5.21867
LeftFoot  1.98764 0.259885 -2.41161
LeftToes  -1.63346e-009 7.54925e-011 9.86887e-012
263
root  80.3941 38.6564 0.326449 178.268 45.2551 176.813
RightUpLeg  -4.55989 -0.412913 -1.55698
RightLeg  18.4865 8.59978 1.67134
RightFoot  -13.1364 -0.144723 -3.56864
RightToes  -1.33073e-015 0 -3.6325e-017
Spine  4.06944 2.70015 12.0119
Spine1  6.74586 5.49154 -10.2828
HEad  -21.7076 30.4478 -20.8713
LeftShoulder1  -0.59129 4.98377 -33.8015
LeftArm  20.3243 -3.17027 -42.8931
LeftForeArm  12.3496 -33.4876 -6.56711
LeftHand  0.023151 6.23918 6.70819
RightShoulder  -1.00281 -6.13743 31.4678
RightArm  23.5063 -6.56708 39.5611
RightForeArm  22.3985 7.23386 9.93271
RightHand  0.0282584 3.57661 0.109608
LeftUpLeg  -14.8098 -12.0514 -5.64017
LeftLeg  11.1854 -31.9745 -4.32412
LeftFoot  0.0677408 0.55329 -5.4846
LeftToes  -1.63346e-009 7.54925e-011 9.86887e-012
264
root  80.2178 38.7842 0.625005 178.524 40.6259 176.548
RightUpLeg  -4.42489 -3.20437 -1.90918
RightLeg  17.1825 6.82582 1.11607
RightFoot  -12.1422 -0.106516 -3.50527
RightToes  -1.33073e-015 0 -3.6325e-017
Spine  4.87954 2.52348 11.0255
Spine1  6.19201 4.94384 -8.80558
HEad  -21.5466 32.4283 -21.5301
LeftShoulder1  -0.555523 4.87782 -34.2375
LeftArm  20.765 -3.83656 -42.7841
LeftForeArm  4.55752 -22.5079 -5.93326
LeftHand  -0.0779966 4.29841 6.17804
RightShoulder  -0.860757 -5.84337 30.1958
RightArm  22.5512 -4.4677 39.1078
RightForeArm  25.3092 5.78003 10.1165
RightHand  0.0363277 2.97522 0.30159
LeftUpLeg  -14.7923 -8.63886 -6.66555
LeftLeg  8.55372 -28.8502 -1.99687
LeftFoot  -0.678764 0.367218 -3.87019
LeftToes  -1.63346e-009 7.54925e-011 9.86887e-012
